<mxfile host="Electron" agent="Mozilla/5.0 (Windows NT 10.0; Win64; x64) AppleWebKit/537.36 (KHTML, like Gecko) draw.io/24.7.5 Chrome/126.0.6478.183 Electron/31.3.0 Safari/537.36" version="24.7.5">
  <diagram name="Page-1" id="42789a77-a242-8287-6e28-9cd8cfd52e62">
    <mxGraphModel dx="2722" dy="1408" grid="1" gridSize="10" guides="1" tooltips="1" connect="1" arrows="1" fold="1" page="1" pageScale="1" pageWidth="1169" pageHeight="827" background="#FFFFFF" math="0" shadow="0">
      <root>
        <mxCell id="0" />
        <mxCell id="1" parent="0" />
        <mxCell id="4AQj4vTzhV2-fQuNa3T3-23" value="" style="rounded=1;whiteSpace=wrap;html=1;labelBackgroundColor=default;strokeWidth=1.5;" parent="1" vertex="1">
          <mxGeometry x="260" y="140" width="480" height="80" as="geometry" />
        </mxCell>
        <mxCell id="Fuf8ZG8SZwSjGpJqajnA-6" value="" style="rounded=1;whiteSpace=wrap;html=1;labelBackgroundColor=default;strokeWidth=1.5;" parent="1" vertex="1">
          <mxGeometry x="620" y="380" width="480" height="80" as="geometry" />
        </mxCell>
        <mxCell id="1ea317790d2ca983-6" value="&lt;span&gt;o&lt;/span&gt;" style="ellipse;whiteSpace=wrap;html=1;rounded=0;shadow=0;comic=0;labelBackgroundColor=none;strokeWidth=1.5;fontFamily=Verdana;fontSize=12;align=center;fontStyle=1;fillColor=#f8cecc;strokeColor=#b85450;labelBorderColor=none;" parent="1" vertex="1">
          <mxGeometry x="1240" y="400" width="80" height="40" as="geometry" />
        </mxCell>
        <mxCell id="1ea317790d2ca983-1" value="N" style="ellipse;whiteSpace=wrap;html=1;rounded=0;shadow=0;comic=0;labelBackgroundColor=none;strokeWidth=1.5;fontFamily=Verdana;fontSize=12;align=center;fontStyle=1;fillColor=#f8cecc;strokeColor=#b85450;labelBorderColor=none;" parent="1" vertex="1">
          <mxGeometry x="640" y="400" width="80" height="40" as="geometry" />
        </mxCell>
        <mxCell id="1ea317790d2ca983-2" value="&lt;span&gt;K&lt;/span&gt;" style="ellipse;whiteSpace=wrap;html=1;rounded=0;shadow=0;comic=0;labelBackgroundColor=none;strokeWidth=1.5;fontFamily=Verdana;fontSize=12;align=center;fontStyle=1;fillColor=#f8cecc;strokeColor=#b85450;labelBorderColor=none;" parent="1" vertex="1">
          <mxGeometry x="1120" y="400" width="80" height="40" as="geometry" />
        </mxCell>
        <mxCell id="1ea317790d2ca983-3" value="&lt;span&gt;l&lt;/span&gt;" style="ellipse;whiteSpace=wrap;html=1;rounded=0;shadow=0;comic=0;labelBackgroundColor=none;strokeWidth=1.5;fontFamily=Verdana;fontSize=12;align=center;fontStyle=1;fillColor=#f8cecc;strokeColor=#b85450;labelBorderColor=none;" parent="1" vertex="1">
          <mxGeometry x="760" y="480" width="80" height="40" as="geometry" />
        </mxCell>
        <mxCell id="1ea317790d2ca983-4" value="&lt;span&gt;v&lt;/span&gt;" style="ellipse;whiteSpace=wrap;html=1;rounded=0;shadow=0;comic=0;labelBackgroundColor=none;strokeWidth=1.5;fontFamily=Verdana;fontSize=12;align=center;fontStyle=1;fillColor=#f8cecc;strokeColor=#b85450;labelBorderColor=none;" parent="1" vertex="1">
          <mxGeometry x="880" y="400" width="80" height="40" as="geometry" />
        </mxCell>
        <mxCell id="1ea317790d2ca983-5" value="&lt;span&gt;f&lt;/span&gt;" style="ellipse;whiteSpace=wrap;html=1;rounded=0;shadow=0;comic=0;labelBackgroundColor=none;strokeWidth=1.5;fontFamily=Verdana;fontSize=12;align=center;fontStyle=1;fillColor=#f8cecc;strokeColor=#b85450;labelBorderColor=none;" parent="1" vertex="1">
          <mxGeometry x="740" y="350" width="80" height="40" as="geometry" />
        </mxCell>
        <mxCell id="1ea317790d2ca983-7" value="&lt;span&gt;D&lt;/span&gt;" style="ellipse;whiteSpace=wrap;html=1;rounded=0;shadow=0;comic=0;labelBackgroundColor=none;strokeWidth=1.5;fontFamily=Verdana;fontSize=12;align=center;fontStyle=1;fillColor=#bac8d3;strokeColor=#23445D;labelBorderColor=none;" parent="1" vertex="1">
          <mxGeometry x="520" y="400" width="80" height="40" as="geometry" />
        </mxCell>
        <mxCell id="1ea317790d2ca983-10" value="&lt;span&gt;static&lt;/span&gt;" style="ellipse;whiteSpace=wrap;html=1;rounded=0;shadow=0;comic=0;labelBackgroundColor=none;strokeWidth=1.5;fontFamily=Verdana;fontSize=12;align=center;fontStyle=1;fillColor=#ffff88;strokeColor=#B8BD31;labelBorderColor=none;" parent="1" vertex="1">
          <mxGeometry x="880" y="280" width="80" height="40" as="geometry" />
        </mxCell>
        <mxCell id="1ea317790d2ca983-11" value="&lt;span&gt;PU&lt;br&gt;&lt;/span&gt;" style="ellipse;whiteSpace=wrap;html=1;rounded=0;shadow=0;comic=0;labelBackgroundColor=none;strokeWidth=1.5;fontFamily=Verdana;fontSize=12;align=center;fontStyle=1;fillColor=#ffcc99;strokeColor=#B46504;labelBorderColor=none;" parent="1" vertex="1">
          <mxGeometry x="880" y="760" width="80" height="40" as="geometry" />
        </mxCell>
        <mxCell id="fu6DnhhA0FLCa2TkjUO7-2" value="UMR" style="ellipse;whiteSpace=wrap;html=1;fontStyle=1;fillColor=#e1d5e7;strokeColor=#9673a6;shadow=0;strokeWidth=1.5;labelBorderColor=none;" parent="1" vertex="1">
          <mxGeometry x="760" y="640" width="80" height="40" as="geometry" />
        </mxCell>
        <mxCell id="fu6DnhhA0FLCa2TkjUO7-15" value="" style="endArrow=classic;html=1;rounded=1;exitX=0;exitY=1;exitDx=0;exitDy=0;entryX=1;entryY=0;entryDx=0;entryDy=0;fontStyle=1;shadow=0;strokeWidth=1.5;labelBorderColor=none;" parent="1" source="1ea317790d2ca983-4" target="fu6DnhhA0FLCa2TkjUO7-2" edge="1">
          <mxGeometry width="50" height="50" relative="1" as="geometry">
            <mxPoint x="950" y="460" as="sourcePoint" />
            <mxPoint x="1000" y="410" as="targetPoint" />
          </mxGeometry>
        </mxCell>
        <mxCell id="fu6DnhhA0FLCa2TkjUO7-16" value="" style="endArrow=classic;html=1;rounded=1;exitX=0.5;exitY=1;exitDx=0;exitDy=0;entryX=0.5;entryY=0;entryDx=0;entryDy=0;fontStyle=1;shadow=0;strokeWidth=1.5;labelBorderColor=none;" parent="1" source="1ea317790d2ca983-3" target="fu6DnhhA0FLCa2TkjUO7-2" edge="1">
          <mxGeometry width="50" height="50" relative="1" as="geometry">
            <mxPoint x="950" y="460" as="sourcePoint" />
            <mxPoint x="1000" y="410" as="targetPoint" />
          </mxGeometry>
        </mxCell>
        <mxCell id="fu6DnhhA0FLCa2TkjUO7-17" value="" style="endArrow=classic;html=1;rounded=1;exitX=1;exitY=1;exitDx=0;exitDy=0;entryX=0;entryY=0;entryDx=0;entryDy=0;fontStyle=1;shadow=0;strokeWidth=1.5;labelBorderColor=none;" parent="1" source="1ea317790d2ca983-1" target="fu6DnhhA0FLCa2TkjUO7-2" edge="1">
          <mxGeometry width="50" height="50" relative="1" as="geometry">
            <mxPoint x="950" y="460" as="sourcePoint" />
            <mxPoint x="1000" y="410" as="targetPoint" />
          </mxGeometry>
        </mxCell>
        <mxCell id="fu6DnhhA0FLCa2TkjUO7-18" value="" style="endArrow=classic;html=1;rounded=1;exitX=0.5;exitY=1;exitDx=0;exitDy=0;fontStyle=1;shadow=0;strokeWidth=1.5;labelBorderColor=none;entryX=0.5;entryY=0;entryDx=0;entryDy=0;" parent="1" source="fu6DnhhA0FLCa2TkjUO7-2" target="1ea317790d2ca983-8" edge="1">
          <mxGeometry width="50" height="50" relative="1" as="geometry">
            <mxPoint x="950" y="580" as="sourcePoint" />
            <mxPoint x="1000" y="530" as="targetPoint" />
          </mxGeometry>
        </mxCell>
        <mxCell id="fu6DnhhA0FLCa2TkjUO7-19" value="" style="endArrow=classic;html=1;rounded=1;exitX=0.5;exitY=1;exitDx=0;exitDy=0;entryX=0.5;entryY=0;entryDx=0;entryDy=0;fontStyle=1;shadow=0;strokeWidth=1.5;labelBorderColor=none;" parent="1" source="1ea317790d2ca983-4" target="1ea317790d2ca983-11" edge="1">
          <mxGeometry width="50" height="50" relative="1" as="geometry">
            <mxPoint x="950" y="460" as="sourcePoint" />
            <mxPoint x="1000" y="410" as="targetPoint" />
          </mxGeometry>
        </mxCell>
        <mxCell id="fu6DnhhA0FLCa2TkjUO7-20" value="" style="endArrow=classic;html=1;rounded=1;exitX=1;exitY=0.5;exitDx=0;exitDy=0;entryX=0;entryY=0.5;entryDx=0;entryDy=0;fontStyle=1;shadow=0;strokeWidth=1.5;labelBorderColor=none;" parent="1" source="1ea317790d2ca983-8" target="1ea317790d2ca983-11" edge="1">
          <mxGeometry width="50" height="50" relative="1" as="geometry">
            <mxPoint x="950" y="580" as="sourcePoint" />
            <mxPoint x="1000" y="530" as="targetPoint" />
          </mxGeometry>
        </mxCell>
        <mxCell id="fu6DnhhA0FLCa2TkjUO7-21" value="" style="endArrow=classic;startArrow=classic;html=1;rounded=1;exitX=1;exitY=0.5;exitDx=0;exitDy=0;fontStyle=1;shadow=0;strokeWidth=1.5;labelBorderColor=none;entryX=0;entryY=0.5;entryDx=0;entryDy=0;" parent="1" source="1ea317790d2ca983-3" target="1ea317790d2ca983-4" edge="1">
          <mxGeometry width="50" height="50" relative="1" as="geometry">
            <mxPoint x="950" y="395" as="sourcePoint" />
            <mxPoint x="880" y="415" as="targetPoint" />
          </mxGeometry>
        </mxCell>
        <mxCell id="fu6DnhhA0FLCa2TkjUO7-22" value="" style="endArrow=classic;html=1;rounded=1;exitX=1;exitY=0.5;exitDx=0;exitDy=0;entryX=0;entryY=0.5;entryDx=0;entryDy=0;fontStyle=1;shadow=0;strokeWidth=1.5;labelBorderColor=none;" parent="1" source="1ea317790d2ca983-4" target="1ea317790d2ca983-5" edge="1">
          <mxGeometry width="50" height="50" relative="1" as="geometry">
            <mxPoint x="1010" y="525" as="sourcePoint" />
            <mxPoint x="1000" y="345" as="targetPoint" />
          </mxGeometry>
        </mxCell>
        <mxCell id="fu6DnhhA0FLCa2TkjUO7-24" value="" style="endArrow=classic;html=1;rounded=1;exitX=0.5;exitY=0;exitDx=0;exitDy=0;dashed=1;fontStyle=1;shadow=0;strokeWidth=1.5;labelBorderColor=none;entryX=0.5;entryY=1;entryDx=0;entryDy=0;" parent="1" source="fu6DnhhA0FLCa2TkjUO7-141" target="1ea317790d2ca983-5" edge="1">
          <mxGeometry width="50" height="50" relative="1" as="geometry">
            <mxPoint x="1040" y="320" as="sourcePoint" />
            <mxPoint x="1050" y="540" as="targetPoint" />
          </mxGeometry>
        </mxCell>
        <mxCell id="fu6DnhhA0FLCa2TkjUO7-25" value="" style="endArrow=classic;html=1;rounded=1;exitX=0.5;exitY=1;exitDx=0;exitDy=0;fontStyle=1;shadow=0;strokeWidth=1.5;labelBorderColor=none;" parent="1" source="1ea317790d2ca983-10" target="1ea317790d2ca983-4" edge="1">
          <mxGeometry width="50" height="50" relative="1" as="geometry">
            <mxPoint x="980" y="520" as="sourcePoint" />
            <mxPoint x="1000" y="410" as="targetPoint" />
          </mxGeometry>
        </mxCell>
        <mxCell id="fu6DnhhA0FLCa2TkjUO7-26" value="" style="endArrow=classic;html=1;rounded=1;exitX=1;exitY=1;exitDx=0;exitDy=0;entryX=0.5;entryY=0;entryDx=0;entryDy=0;fontStyle=1;shadow=0;strokeWidth=1.5;labelBorderColor=none;" parent="1" source="1ea317790d2ca983-10" target="1ea317790d2ca983-5" edge="1">
          <mxGeometry width="50" height="50" relative="1" as="geometry">
            <mxPoint x="950" y="460" as="sourcePoint" />
            <mxPoint x="1000" y="410" as="targetPoint" />
          </mxGeometry>
        </mxCell>
        <mxCell id="fu6DnhhA0FLCa2TkjUO7-28" value="SSB" style="ellipse;whiteSpace=wrap;html=1;fontStyle=1;fillColor=#fad7ac;strokeColor=#b46504;shadow=0;strokeWidth=1.5;labelBorderColor=none;" parent="1" vertex="1">
          <mxGeometry x="880" y="160" width="80" height="40" as="geometry" />
        </mxCell>
        <mxCell id="fu6DnhhA0FLCa2TkjUO7-29" value="grid" style="ellipse;whiteSpace=wrap;html=1;fontStyle=1;fillColor=#bac8d3;strokeColor=#23445D;shadow=0;strokeWidth=1.5;labelBorderColor=none;" parent="1" vertex="1">
          <mxGeometry x="760" y="160" width="80" height="40" as="geometry" />
        </mxCell>
        <mxCell id="fu6DnhhA0FLCa2TkjUO7-30" value="" style="endArrow=classic;html=1;curved=1;exitX=1;exitY=0.5;exitDx=0;exitDy=0;entryX=0;entryY=0.5;entryDx=0;entryDy=0;fontStyle=1;shadow=0;strokeWidth=1.5;labelBorderColor=none;" parent="1" source="fu6DnhhA0FLCa2TkjUO7-29" target="fu6DnhhA0FLCa2TkjUO7-28" edge="1">
          <mxGeometry width="50" height="50" relative="1" as="geometry">
            <mxPoint x="950" y="380" as="sourcePoint" />
            <mxPoint x="1000" y="330" as="targetPoint" />
          </mxGeometry>
        </mxCell>
        <mxCell id="fu6DnhhA0FLCa2TkjUO7-31" value="" style="endArrow=classic;html=1;curved=1;exitX=0;exitY=0;exitDx=0;exitDy=0;entryX=1;entryY=1;entryDx=0;entryDy=0;fontStyle=1;shadow=0;strokeWidth=1.5;labelBorderColor=none;" parent="1" source="1ea317790d2ca983-2" target="fu6DnhhA0FLCa2TkjUO7-28" edge="1">
          <mxGeometry width="50" height="50" relative="1" as="geometry">
            <mxPoint x="950" y="380" as="sourcePoint" />
            <mxPoint x="1000" y="330" as="targetPoint" />
          </mxGeometry>
        </mxCell>
        <mxCell id="fu6DnhhA0FLCa2TkjUO7-32" value="" style="endArrow=classic;html=1;curved=1;exitX=1;exitY=0;exitDx=0;exitDy=0;fontStyle=1;shadow=0;strokeWidth=1.5;labelBorderColor=none;" parent="1" source="1ea317790d2ca983-7" target="fu6DnhhA0FLCa2TkjUO7-29" edge="1">
          <mxGeometry width="50" height="50" relative="1" as="geometry">
            <mxPoint x="950" y="380" as="sourcePoint" />
            <mxPoint x="1000" y="330" as="targetPoint" />
          </mxGeometry>
        </mxCell>
        <mxCell id="fu6DnhhA0FLCa2TkjUO7-33" value="angle" style="ellipse;whiteSpace=wrap;html=1;fontStyle=1;fillColor=#bac8d3;strokeColor=#23445D;shadow=0;strokeWidth=1.5;labelBorderColor=none;" parent="1" vertex="1">
          <mxGeometry x="760" y="40" width="80" height="40" as="geometry" />
        </mxCell>
        <mxCell id="fu6DnhhA0FLCa2TkjUO7-34" value="" style="endArrow=classic;html=1;curved=1;exitX=0.5;exitY=1;exitDx=0;exitDy=0;entryX=0.5;entryY=0;entryDx=0;entryDy=0;fontStyle=1;shadow=0;strokeWidth=1.5;labelBorderColor=none;" parent="1" source="fu6DnhhA0FLCa2TkjUO7-33" target="fu6DnhhA0FLCa2TkjUO7-29" edge="1">
          <mxGeometry width="50" height="50" relative="1" as="geometry">
            <mxPoint x="950" y="340" as="sourcePoint" />
            <mxPoint x="1000" y="290" as="targetPoint" />
          </mxGeometry>
        </mxCell>
        <mxCell id="fu6DnhhA0FLCa2TkjUO7-36" value="WDM" style="ellipse;whiteSpace=wrap;html=1;fontStyle=1;fillColor=#ffff88;strokeColor=#B8BD31;shadow=0;strokeWidth=1.5;labelBorderColor=none;" parent="1" vertex="1">
          <mxGeometry x="399" y="160" width="80" height="40" as="geometry" />
        </mxCell>
        <mxCell id="fu6DnhhA0FLCa2TkjUO7-37" value="FDM" style="ellipse;whiteSpace=wrap;html=1;fontStyle=1;fillColor=#ffff88;strokeColor=#B8BD31;shadow=0;strokeWidth=1.5;labelBorderColor=none;" parent="1" vertex="1">
          <mxGeometry x="520" y="160" width="80" height="40" as="geometry" />
        </mxCell>
        <mxCell id="fu6DnhhA0FLCa2TkjUO7-38" value="SDM" style="ellipse;whiteSpace=wrap;html=1;fontStyle=1;fillColor=#ffff88;strokeColor=#B8BD31;shadow=0;strokeWidth=1.5;labelBorderColor=none;" parent="1" vertex="1">
          <mxGeometry x="640" y="160" width="80" height="40" as="geometry" />
        </mxCell>
        <mxCell id="fu6DnhhA0FLCa2TkjUO7-39" value="" style="endArrow=classic;startArrow=classic;html=1;curved=1;exitX=1;exitY=0.5;exitDx=0;exitDy=0;entryX=0;entryY=0.5;entryDx=0;entryDy=0;fontStyle=1;shadow=0;strokeWidth=1.5;labelBorderColor=none;" parent="1" source="fu6DnhhA0FLCa2TkjUO7-36" target="fu6DnhhA0FLCa2TkjUO7-37" edge="1">
          <mxGeometry width="50" height="50" relative="1" as="geometry">
            <mxPoint x="950" y="460" as="sourcePoint" />
            <mxPoint x="1000" y="410" as="targetPoint" />
          </mxGeometry>
        </mxCell>
        <mxCell id="fu6DnhhA0FLCa2TkjUO7-40" value="" style="endArrow=classic;startArrow=classic;html=1;curved=1;exitX=1;exitY=0.5;exitDx=0;exitDy=0;entryX=0;entryY=0.5;entryDx=0;entryDy=0;fontStyle=1;shadow=0;strokeWidth=1.5;labelBorderColor=none;" parent="1" source="fu6DnhhA0FLCa2TkjUO7-37" target="fu6DnhhA0FLCa2TkjUO7-38" edge="1">
          <mxGeometry width="50" height="50" relative="1" as="geometry">
            <mxPoint x="950" y="460" as="sourcePoint" />
            <mxPoint x="1000" y="410" as="targetPoint" />
          </mxGeometry>
        </mxCell>
        <mxCell id="fu6DnhhA0FLCa2TkjUO7-41" value="" style="endArrow=classic;html=1;curved=1;exitX=1;exitY=0.5;exitDx=0;exitDy=0;entryX=0;entryY=0.5;entryDx=0;entryDy=0;fontStyle=1;shadow=0;strokeWidth=1.5;labelBorderColor=none;" parent="1" source="fu6DnhhA0FLCa2TkjUO7-38" target="fu6DnhhA0FLCa2TkjUO7-29" edge="1">
          <mxGeometry width="50" height="50" relative="1" as="geometry">
            <mxPoint x="950" y="340" as="sourcePoint" />
            <mxPoint x="1000" y="290" as="targetPoint" />
          </mxGeometry>
        </mxCell>
        <mxCell id="fu6DnhhA0FLCa2TkjUO7-42" value="" style="endArrow=classic;html=1;curved=1;exitX=0.5;exitY=0;exitDx=0;exitDy=0;entryX=0.5;entryY=1;entryDx=0;entryDy=0;fontStyle=1;shadow=0;strokeWidth=1.5;labelBorderColor=none;" parent="1" source="1ea317790d2ca983-7" target="fu6DnhhA0FLCa2TkjUO7-38" edge="1">
          <mxGeometry width="50" height="50" relative="1" as="geometry">
            <mxPoint x="950" y="340" as="sourcePoint" />
            <mxPoint x="1000" y="290" as="targetPoint" />
          </mxGeometry>
        </mxCell>
        <mxCell id="fu6DnhhA0FLCa2TkjUO7-43" value="shape" style="ellipse;whiteSpace=wrap;html=1;fontStyle=1;fillColor=#cdeb8b;strokeColor=#6D9656;shadow=0;strokeWidth=1.5;labelBorderColor=none;" parent="1" vertex="1">
          <mxGeometry x="280" y="400" width="80" height="40" as="geometry" />
        </mxCell>
        <mxCell id="fu6DnhhA0FLCa2TkjUO7-44" value="T" style="ellipse;whiteSpace=wrap;html=1;fontStyle=1;fillColor=#cdeb8b;strokeColor=#6D9656;shadow=0;strokeWidth=1.5;labelBorderColor=none;" parent="1" vertex="1">
          <mxGeometry x="400" y="280" width="80" height="40" as="geometry" />
        </mxCell>
        <mxCell id="fu6DnhhA0FLCa2TkjUO7-45" value="Y" style="ellipse;whiteSpace=wrap;html=1;fontStyle=1;fillColor=#cdeb8b;strokeColor=#6D9656;shadow=0;strokeWidth=1.5;labelBorderColor=none;" parent="1" vertex="1">
          <mxGeometry x="400" y="520" width="80" height="40" as="geometry" />
        </mxCell>
        <mxCell id="fu6DnhhA0FLCa2TkjUO7-46" value="X" style="ellipse;whiteSpace=wrap;html=1;fontStyle=1;fillColor=#cdeb8b;strokeColor=#6D9656;shadow=0;strokeWidth=1.5;labelBorderColor=none;" parent="1" vertex="1">
          <mxGeometry x="160" y="520" width="80" height="40" as="geometry" />
        </mxCell>
        <mxCell id="fu6DnhhA0FLCa2TkjUO7-47" value="C" style="ellipse;whiteSpace=wrap;html=1;fontStyle=1;fillColor=#cdeb8b;strokeColor=#6D9656;shadow=0;strokeWidth=1.5;labelBorderColor=none;" parent="1" vertex="1">
          <mxGeometry x="160" y="280" width="80" height="40" as="geometry" />
        </mxCell>
        <mxCell id="fu6DnhhA0FLCa2TkjUO7-48" value="" style="endArrow=classic;html=1;curved=1;exitX=1;exitY=1;exitDx=0;exitDy=0;entryX=0;entryY=0;entryDx=0;entryDy=0;fontStyle=1;shadow=0;strokeWidth=1.5;labelBorderColor=none;" parent="1" source="fu6DnhhA0FLCa2TkjUO7-47" target="fu6DnhhA0FLCa2TkjUO7-43" edge="1">
          <mxGeometry width="50" height="50" relative="1" as="geometry">
            <mxPoint x="950" y="500" as="sourcePoint" />
            <mxPoint x="1000" y="450" as="targetPoint" />
          </mxGeometry>
        </mxCell>
        <mxCell id="fu6DnhhA0FLCa2TkjUO7-49" value="" style="endArrow=classic;html=1;curved=1;exitX=0;exitY=1;exitDx=0;exitDy=0;entryX=1;entryY=0;entryDx=0;entryDy=0;fontStyle=1;shadow=0;strokeWidth=1.5;labelBorderColor=none;" parent="1" source="fu6DnhhA0FLCa2TkjUO7-44" target="fu6DnhhA0FLCa2TkjUO7-43" edge="1">
          <mxGeometry width="50" height="50" relative="1" as="geometry">
            <mxPoint x="950" y="500" as="sourcePoint" />
            <mxPoint x="1000" y="450" as="targetPoint" />
          </mxGeometry>
        </mxCell>
        <mxCell id="fu6DnhhA0FLCa2TkjUO7-50" value="" style="endArrow=classic;html=1;curved=1;exitX=1;exitY=0;exitDx=0;exitDy=0;entryX=0;entryY=1;entryDx=0;entryDy=0;fontStyle=1;shadow=0;strokeWidth=1.5;labelBorderColor=none;" parent="1" source="fu6DnhhA0FLCa2TkjUO7-46" target="fu6DnhhA0FLCa2TkjUO7-43" edge="1">
          <mxGeometry width="50" height="50" relative="1" as="geometry">
            <mxPoint x="950" y="500" as="sourcePoint" />
            <mxPoint x="290" y="500" as="targetPoint" />
          </mxGeometry>
        </mxCell>
        <mxCell id="fu6DnhhA0FLCa2TkjUO7-51" value="" style="endArrow=classic;html=1;curved=1;exitX=0;exitY=0;exitDx=0;exitDy=0;entryX=1;entryY=1;entryDx=0;entryDy=0;fontStyle=1;shadow=0;strokeWidth=1.5;labelBorderColor=none;" parent="1" source="fu6DnhhA0FLCa2TkjUO7-45" target="fu6DnhhA0FLCa2TkjUO7-43" edge="1">
          <mxGeometry width="50" height="50" relative="1" as="geometry">
            <mxPoint x="950" y="500" as="sourcePoint" />
            <mxPoint x="1000" y="450" as="targetPoint" />
          </mxGeometry>
        </mxCell>
        <mxCell id="fu6DnhhA0FLCa2TkjUO7-52" value="size" style="ellipse;whiteSpace=wrap;html=1;fontStyle=1;fillColor=#cdeb8b;strokeColor=#6D9656;shadow=0;strokeWidth=1.5;labelBorderColor=none;" parent="1" vertex="1">
          <mxGeometry x="40" y="400" width="80" height="40" as="geometry" />
        </mxCell>
        <mxCell id="fu6DnhhA0FLCa2TkjUO7-53" value="" style="endArrow=classic;html=1;curved=1;exitX=0;exitY=0.5;exitDx=0;exitDy=0;entryX=1;entryY=0.5;entryDx=0;entryDy=0;fontStyle=1;shadow=0;strokeWidth=1.5;labelBorderColor=none;" parent="1" source="fu6DnhhA0FLCa2TkjUO7-43" target="fu6DnhhA0FLCa2TkjUO7-52" edge="1">
          <mxGeometry width="50" height="50" relative="1" as="geometry">
            <mxPoint x="950" y="340" as="sourcePoint" />
            <mxPoint x="1000" y="290" as="targetPoint" />
          </mxGeometry>
        </mxCell>
        <mxCell id="fu6DnhhA0FLCa2TkjUO7-54" value="L" style="ellipse;whiteSpace=wrap;html=1;fontStyle=1;fillColor=#cdeb8b;strokeColor=#6D9656;shadow=0;strokeWidth=1.5;labelBorderColor=none;" parent="1" vertex="1">
          <mxGeometry x="280" y="640" width="80" height="40" as="geometry" />
        </mxCell>
        <mxCell id="fu6DnhhA0FLCa2TkjUO7-55" value="" style="endArrow=classic;html=1;curved=1;exitX=1;exitY=1;exitDx=0;exitDy=0;entryX=0;entryY=0;entryDx=0;entryDy=0;fontStyle=1;shadow=0;strokeWidth=1.5;labelBorderColor=none;" parent="1" source="fu6DnhhA0FLCa2TkjUO7-46" target="fu6DnhhA0FLCa2TkjUO7-54" edge="1">
          <mxGeometry width="50" height="50" relative="1" as="geometry">
            <mxPoint x="950" y="520" as="sourcePoint" />
            <mxPoint x="1000" y="470" as="targetPoint" />
          </mxGeometry>
        </mxCell>
        <mxCell id="fu6DnhhA0FLCa2TkjUO7-56" value="" style="endArrow=classic;html=1;curved=1;exitX=0;exitY=1;exitDx=0;exitDy=0;entryX=1;entryY=0;entryDx=0;entryDy=0;fontStyle=1;shadow=0;strokeWidth=1.5;labelBorderColor=none;" parent="1" source="fu6DnhhA0FLCa2TkjUO7-45" target="fu6DnhhA0FLCa2TkjUO7-54" edge="1">
          <mxGeometry width="50" height="50" relative="1" as="geometry">
            <mxPoint x="950" y="520" as="sourcePoint" />
            <mxPoint x="1000" y="470" as="targetPoint" />
          </mxGeometry>
        </mxCell>
        <mxCell id="fu6DnhhA0FLCa2TkjUO7-58" value="ux" style="ellipse;whiteSpace=wrap;html=1;fontStyle=1;fillColor=#e1d5e7;strokeColor=#9673a6;shadow=0;strokeWidth=1.5;labelBorderColor=none;" parent="1" vertex="1">
          <mxGeometry x="520" y="640" width="80" height="40" as="geometry" />
        </mxCell>
        <mxCell id="fu6DnhhA0FLCa2TkjUO7-60" value="" style="endArrow=classic;html=1;curved=1;exitX=0;exitY=1;exitDx=0;exitDy=0;entryX=0.5;entryY=0;entryDx=0;entryDy=0;fontStyle=1;shadow=0;strokeWidth=1.5;labelBorderColor=none;" parent="1" source="1ea317790d2ca983-1" target="fu6DnhhA0FLCa2TkjUO7-58" edge="1">
          <mxGeometry width="50" height="50" relative="1" as="geometry">
            <mxPoint x="820" y="520" as="sourcePoint" />
            <mxPoint x="870" y="470" as="targetPoint" />
          </mxGeometry>
        </mxCell>
        <mxCell id="fu6DnhhA0FLCa2TkjUO7-61" value="DR" style="ellipse;whiteSpace=wrap;html=1;fontStyle=1;fillColor=#e1d5e7;strokeColor=#9673a6;shadow=0;strokeWidth=1.5;labelBorderColor=none;" parent="1" vertex="1">
          <mxGeometry x="640" y="640" width="80" height="40" as="geometry" />
        </mxCell>
        <mxCell id="fu6DnhhA0FLCa2TkjUO7-62" value="" style="endArrow=classic;html=1;curved=1;exitX=0;exitY=0.5;exitDx=0;exitDy=0;fontStyle=1;shadow=0;strokeWidth=1.5;labelBorderColor=none;" parent="1" source="fu6DnhhA0FLCa2TkjUO7-2" edge="1">
          <mxGeometry width="50" height="50" relative="1" as="geometry">
            <mxPoint x="820" y="520" as="sourcePoint" />
            <mxPoint x="720" y="660" as="targetPoint" />
          </mxGeometry>
        </mxCell>
        <mxCell id="fu6DnhhA0FLCa2TkjUO7-63" value="" style="endArrow=classic;html=1;curved=1;entryX=0;entryY=0.5;entryDx=0;entryDy=0;fontStyle=1;shadow=0;strokeWidth=1.5;labelBorderColor=none;" parent="1" target="fu6DnhhA0FLCa2TkjUO7-61" edge="1">
          <mxGeometry width="50" height="50" relative="1" as="geometry">
            <mxPoint x="600" y="660" as="sourcePoint" />
            <mxPoint x="870" y="470" as="targetPoint" />
          </mxGeometry>
        </mxCell>
        <mxCell id="fu6DnhhA0FLCa2TkjUO7-64" value="M" style="ellipse;whiteSpace=wrap;html=1;fontStyle=1;fillColor=#b0e3e6;strokeColor=#0e8088;shadow=0;strokeWidth=1.5;labelBorderColor=none;" parent="1" vertex="1">
          <mxGeometry x="399.5" y="400" width="80" height="40" as="geometry" />
        </mxCell>
        <mxCell id="fu6DnhhA0FLCa2TkjUO7-69" value="" style="endArrow=classic;html=1;curved=1;exitX=1;exitY=1;exitDx=0;exitDy=0;entryX=0;entryY=0;entryDx=0;entryDy=0;fontStyle=1;shadow=0;strokeWidth=1.5;labelBorderColor=none;" parent="1" source="fu6DnhhA0FLCa2TkjUO7-64" target="fu6DnhhA0FLCa2TkjUO7-58" edge="1">
          <mxGeometry width="50" height="50" relative="1" as="geometry">
            <mxPoint x="820" y="520" as="sourcePoint" />
            <mxPoint x="870" y="470" as="targetPoint" />
          </mxGeometry>
        </mxCell>
        <mxCell id="fu6DnhhA0FLCa2TkjUO7-73" value="quant" style="ellipse;whiteSpace=wrap;html=1;fontStyle=1;fillColor=#dae8fc;strokeColor=#6c8ebf;shadow=0;strokeWidth=1.5;labelBorderColor=none;" parent="1" vertex="1">
          <mxGeometry x="280" y="760" width="80" height="40" as="geometry" />
        </mxCell>
        <mxCell id="fu6DnhhA0FLCa2TkjUO7-74" value="ui" style="ellipse;whiteSpace=wrap;html=1;fontStyle=1;fillColor=#e51400;strokeColor=#B20000;shadow=0;strokeWidth=1.5;labelBorderColor=none;fontColor=#ffffff;" parent="1" vertex="1">
          <mxGeometry x="520" y="880" width="80" height="40" as="geometry" />
        </mxCell>
        <mxCell id="fu6DnhhA0FLCa2TkjUO7-80" value="nbytes" style="ellipse;whiteSpace=wrap;html=1;fontStyle=1;fillColor=#cce5ff;strokeColor=#10739E;shadow=0;strokeWidth=1.5;labelBorderColor=none;" parent="1" vertex="1">
          <mxGeometry x="40" y="880" width="80" height="40" as="geometry" />
        </mxCell>
        <mxCell id="fu6DnhhA0FLCa2TkjUO7-81" value="q" style="ellipse;whiteSpace=wrap;html=1;fontStyle=1;fillColor=#cce5ff;strokeColor=#10739E;shadow=0;strokeWidth=1.5;labelBorderColor=none;" parent="1" vertex="1">
          <mxGeometry x="280" y="880" width="80" height="40" as="geometry" />
        </mxCell>
        <mxCell id="fu6DnhhA0FLCa2TkjUO7-82" value="Imax" style="ellipse;whiteSpace=wrap;html=1;fontStyle=1;fillColor=#cce5ff;strokeColor=#10739E;shadow=0;strokeWidth=1.5;labelBorderColor=none;" parent="1" vertex="1">
          <mxGeometry x="160" y="880" width="80" height="40" as="geometry" />
        </mxCell>
        <mxCell id="fu6DnhhA0FLCa2TkjUO7-84" value="" style="endArrow=classic;html=1;curved=1;exitX=0.5;exitY=0;exitDx=0;exitDy=0;entryX=0.5;entryY=1;entryDx=0;entryDy=0;fontStyle=1;shadow=0;strokeWidth=1.5;labelBorderColor=none;" parent="1" source="fu6DnhhA0FLCa2TkjUO7-81" target="fu6DnhhA0FLCa2TkjUO7-73" edge="1">
          <mxGeometry width="50" height="50" relative="1" as="geometry">
            <mxPoint x="700" y="760" as="sourcePoint" />
            <mxPoint x="750" y="710" as="targetPoint" />
          </mxGeometry>
        </mxCell>
        <mxCell id="fu6DnhhA0FLCa2TkjUO7-85" value="" style="endArrow=classic;html=1;curved=1;exitX=1;exitY=0;exitDx=0;exitDy=0;entryX=0;entryY=0;entryDx=0;entryDy=0;fontStyle=1;shadow=0;strokeWidth=1.5;labelBorderColor=none;" parent="1" source="fu6DnhhA0FLCa2TkjUO7-79" target="fu6DnhhA0FLCa2TkjUO7-81" edge="1">
          <mxGeometry width="50" height="50" relative="1" as="geometry">
            <mxPoint x="820" y="740" as="sourcePoint" />
            <mxPoint x="870" y="690" as="targetPoint" />
          </mxGeometry>
        </mxCell>
        <mxCell id="fu6DnhhA0FLCa2TkjUO7-86" value="" style="endArrow=classic;html=1;curved=1;exitX=0.5;exitY=0;exitDx=0;exitDy=0;fontStyle=1;shadow=0;strokeWidth=1.5;labelBorderColor=none;fillColor=#cce5ff;strokeColor=#000000;entryX=0.5;entryY=0;entryDx=0;entryDy=0;" parent="1" source="fu6DnhhA0FLCa2TkjUO7-79" target="fu6DnhhA0FLCa2TkjUO7-82" edge="1">
          <mxGeometry width="50" height="50" relative="1" as="geometry">
            <mxPoint x="820" y="740" as="sourcePoint" />
            <mxPoint x="190" y="860" as="targetPoint" />
          </mxGeometry>
        </mxCell>
        <mxCell id="fu6DnhhA0FLCa2TkjUO7-87" value="" style="endArrow=classic;html=1;curved=1;exitX=0;exitY=0;exitDx=0;exitDy=0;entryX=1;entryY=0;entryDx=0;entryDy=0;fontStyle=1;shadow=0;strokeWidth=1.5;labelBorderColor=none;fillColor=#cce5ff;strokeColor=#000000;" parent="1" source="fu6DnhhA0FLCa2TkjUO7-79" target="fu6DnhhA0FLCa2TkjUO7-80" edge="1">
          <mxGeometry width="50" height="50" relative="1" as="geometry">
            <mxPoint x="820" y="740" as="sourcePoint" />
            <mxPoint x="870" y="690" as="targetPoint" />
          </mxGeometry>
        </mxCell>
        <mxCell id="fu6DnhhA0FLCa2TkjUO7-88" value="" style="endArrow=classic;html=1;curved=1;exitX=0.5;exitY=1;exitDx=0;exitDy=0;entryX=0.5;entryY=0;entryDx=0;entryDy=0;fontStyle=1;shadow=0;strokeWidth=1.5;labelBorderColor=none;" parent="1" source="fu6DnhhA0FLCa2TkjUO7-52" target="fu6DnhhA0FLCa2TkjUO7-80" edge="1">
          <mxGeometry width="50" height="50" relative="1" as="geometry">
            <mxPoint x="820" y="700" as="sourcePoint" />
            <mxPoint x="870" y="650" as="targetPoint" />
          </mxGeometry>
        </mxCell>
        <mxCell id="fu6DnhhA0FLCa2TkjUO7-89" value="A" style="ellipse;whiteSpace=wrap;html=1;fontStyle=1;fillColor=#cce5ff;strokeColor=#10739E;shadow=0;strokeWidth=1.5;labelBorderColor=none;" parent="1" vertex="1">
          <mxGeometry x="160" y="1000" width="80" height="40" as="geometry" />
        </mxCell>
        <mxCell id="fu6DnhhA0FLCa2TkjUO7-90" value="B" style="ellipse;whiteSpace=wrap;html=1;fontStyle=1;fillColor=#cce5ff;strokeColor=#10739E;shadow=0;strokeWidth=1.5;labelBorderColor=none;" parent="1" vertex="1">
          <mxGeometry x="280" y="1000" width="80" height="40" as="geometry" />
        </mxCell>
        <mxCell id="fu6DnhhA0FLCa2TkjUO7-91" value="V" style="ellipse;whiteSpace=wrap;html=1;fontStyle=1;fillColor=#cce5ff;strokeColor=#10739E;shadow=0;strokeWidth=1.5;labelBorderColor=none;" parent="1" vertex="1">
          <mxGeometry x="280" y="1120" width="80" height="40" as="geometry" />
        </mxCell>
        <mxCell id="fu6DnhhA0FLCa2TkjUO7-94" value="" style="endArrow=classic;startArrow=classic;html=1;curved=1;exitX=0.5;exitY=0;exitDx=0;exitDy=0;entryX=0.381;entryY=0.967;entryDx=0;entryDy=0;fillColor=#008a00;strokeColor=#000000;fontStyle=1;shadow=0;strokeWidth=1.5;labelBorderColor=none;entryPerimeter=0;" parent="1" source="fu6DnhhA0FLCa2TkjUO7-44" target="4AQj4vTzhV2-fQuNa3T3-23" edge="1">
          <mxGeometry width="50" height="50" relative="1" as="geometry">
            <mxPoint x="820" y="610" as="sourcePoint" />
            <mxPoint x="870" y="560" as="targetPoint" />
          </mxGeometry>
        </mxCell>
        <mxCell id="fu6DnhhA0FLCa2TkjUO7-97" value="" style="endArrow=classic;html=1;curved=1;exitX=0.5;exitY=1;exitDx=0;exitDy=0;entryX=0.5;entryY=0;entryDx=0;entryDy=0;fontStyle=1;shadow=0;strokeWidth=1.5;labelBorderColor=none;" parent="1" source="fu6DnhhA0FLCa2TkjUO7-37" target="1ea317790d2ca983-1" edge="1">
          <mxGeometry width="50" height="50" relative="1" as="geometry">
            <mxPoint x="820" y="610" as="sourcePoint" />
            <mxPoint x="870" y="560" as="targetPoint" />
          </mxGeometry>
        </mxCell>
        <mxCell id="fu6DnhhA0FLCa2TkjUO7-98" value="" style="endArrow=classic;startArrow=classic;html=1;curved=1;exitX=1;exitY=1;exitDx=0;exitDy=0;entryX=0;entryY=0;entryDx=0;entryDy=0;fontStyle=1;shadow=0;strokeWidth=1.5;labelBorderColor=none;" parent="1" source="fu6DnhhA0FLCa2TkjUO7-36" target="1ea317790d2ca983-1" edge="1">
          <mxGeometry width="50" height="50" relative="1" as="geometry">
            <mxPoint x="820" y="610" as="sourcePoint" />
            <mxPoint x="870" y="560" as="targetPoint" />
          </mxGeometry>
        </mxCell>
        <mxCell id="fu6DnhhA0FLCa2TkjUO7-99" value="" style="endArrow=classic;startArrow=classic;html=1;curved=1;exitX=1;exitY=0.5;exitDx=0;exitDy=0;entryX=0;entryY=0.5;entryDx=0;entryDy=0;fontStyle=1;fillColor=#60a917;strokeColor=#000000;shadow=0;strokeWidth=1.5;labelBorderColor=none;" parent="1" source="fu6DnhhA0FLCa2TkjUO7-44" target="1ea317790d2ca983-1" edge="1">
          <mxGeometry width="50" height="50" relative="1" as="geometry">
            <mxPoint x="820" y="610" as="sourcePoint" />
            <mxPoint x="620" y="430" as="targetPoint" />
          </mxGeometry>
        </mxCell>
        <mxCell id="fu6DnhhA0FLCa2TkjUO7-100" value="" style="endArrow=classic;html=1;curved=1;exitX=1;exitY=1;exitDx=0;exitDy=0;fontStyle=1;shadow=0;strokeWidth=1.5;labelBorderColor=none;entryX=0;entryY=0;entryDx=0;entryDy=0;" parent="1" source="fu6DnhhA0FLCa2TkjUO7-37" target="1ea317790d2ca983-4" edge="1">
          <mxGeometry width="50" height="50" relative="1" as="geometry">
            <mxPoint x="820" y="610" as="sourcePoint" />
            <mxPoint x="870" y="560" as="targetPoint" />
            <Array as="points">
              <mxPoint x="770" y="320" />
            </Array>
          </mxGeometry>
        </mxCell>
        <mxCell id="fu6DnhhA0FLCa2TkjUO7-103" value="" style="endArrow=classic;html=1;curved=1;exitX=0.5;exitY=0;exitDx=0;exitDy=0;fontStyle=1;shadow=0;strokeWidth=1.5;labelBorderColor=none;fillColor=#cce5ff;strokeColor=#000000;startArrow=none;" parent="1" source="fu6DnhhA0FLCa2TkjUO7-79" edge="1">
          <mxGeometry width="50" height="50" relative="1" as="geometry">
            <mxPoint x="740" y="850" as="sourcePoint" />
            <mxPoint x="200" y="800" as="targetPoint" />
          </mxGeometry>
        </mxCell>
        <mxCell id="fu6DnhhA0FLCa2TkjUO7-104" value="" style="endArrow=classic;html=1;curved=1;exitX=1;exitY=1;exitDx=0;exitDy=0;fontStyle=1;shadow=0;strokeWidth=1.5;labelBorderColor=none;entryX=0;entryY=0;entryDx=0;entryDy=0;" parent="1" source="fu6DnhhA0FLCa2TkjUO7-82" target="fu6DnhhA0FLCa2TkjUO7-90" edge="1">
          <mxGeometry width="50" height="50" relative="1" as="geometry">
            <mxPoint x="740" y="850" as="sourcePoint" />
            <mxPoint x="280" y="980" as="targetPoint" />
          </mxGeometry>
        </mxCell>
        <mxCell id="fu6DnhhA0FLCa2TkjUO7-105" value="" style="endArrow=classic;startArrow=classic;html=1;curved=1;exitX=1;exitY=0.5;exitDx=0;exitDy=0;entryX=0;entryY=0.5;entryDx=0;entryDy=0;fontStyle=1;shadow=0;strokeWidth=1.5;labelBorderColor=none;" parent="1" source="fu6DnhhA0FLCa2TkjUO7-89" target="fu6DnhhA0FLCa2TkjUO7-90" edge="1">
          <mxGeometry width="50" height="50" relative="1" as="geometry">
            <mxPoint x="740" y="1090" as="sourcePoint" />
            <mxPoint x="790" y="1040" as="targetPoint" />
          </mxGeometry>
        </mxCell>
        <mxCell id="fu6DnhhA0FLCa2TkjUO7-106" value="" style="endArrow=classic;startArrow=classic;html=1;curved=1;exitX=0.5;exitY=0;exitDx=0;exitDy=0;entryX=0.5;entryY=1;entryDx=0;entryDy=0;fontStyle=1;shadow=0;strokeWidth=1.5;labelBorderColor=none;" parent="1" source="fu6DnhhA0FLCa2TkjUO7-91" target="fu6DnhhA0FLCa2TkjUO7-90" edge="1">
          <mxGeometry width="50" height="50" relative="1" as="geometry">
            <mxPoint x="730" y="1240" as="sourcePoint" />
            <mxPoint x="780" y="1190" as="targetPoint" />
          </mxGeometry>
        </mxCell>
        <mxCell id="fu6DnhhA0FLCa2TkjUO7-107" value="" style="endArrow=classic;startArrow=classic;html=1;curved=1;fontStyle=1;shadow=0;strokeWidth=1.5;labelBorderColor=none;fillColor=#cce5ff;strokeColor=#000000;exitX=0;exitY=0;exitDx=0;exitDy=0;entryX=1;entryY=1;entryDx=0;entryDy=0;" parent="1" source="fu6DnhhA0FLCa2TkjUO7-91" target="fu6DnhhA0FLCa2TkjUO7-89" edge="1">
          <mxGeometry width="50" height="50" relative="1" as="geometry">
            <mxPoint x="150" y="1121" as="sourcePoint" />
            <mxPoint x="220" y="1040" as="targetPoint" />
          </mxGeometry>
        </mxCell>
        <mxCell id="fu6DnhhA0FLCa2TkjUO7-108" value="axis" style="ellipse;whiteSpace=wrap;html=1;fontStyle=1;fillColor=#bac8d3;strokeColor=#23445D;shadow=0;strokeWidth=1.5;labelBorderColor=none;" parent="1" vertex="1">
          <mxGeometry x="280" y="520" width="80" height="40" as="geometry" />
        </mxCell>
        <mxCell id="fu6DnhhA0FLCa2TkjUO7-109" value="" style="endArrow=classic;html=1;curved=1;exitX=1;exitY=0.5;exitDx=0;exitDy=0;entryX=0;entryY=0.5;entryDx=0;entryDy=0;fontStyle=1;shadow=0;strokeWidth=1.5;labelBorderColor=none;" parent="1" source="fu6DnhhA0FLCa2TkjUO7-46" target="fu6DnhhA0FLCa2TkjUO7-108" edge="1">
          <mxGeometry width="50" height="50" relative="1" as="geometry">
            <mxPoint x="610" y="730" as="sourcePoint" />
            <mxPoint x="660" y="680" as="targetPoint" />
          </mxGeometry>
        </mxCell>
        <mxCell id="fu6DnhhA0FLCa2TkjUO7-110" value="" style="endArrow=classic;html=1;curved=1;exitX=0;exitY=0.5;exitDx=0;exitDy=0;fontStyle=1;shadow=0;strokeWidth=1.5;labelBorderColor=none;entryX=1;entryY=0.5;entryDx=0;entryDy=0;" parent="1" source="fu6DnhhA0FLCa2TkjUO7-45" target="fu6DnhhA0FLCa2TkjUO7-108" edge="1">
          <mxGeometry width="50" height="50" relative="1" as="geometry">
            <mxPoint x="250" y="550" as="sourcePoint" />
            <mxPoint x="450" y="490" as="targetPoint" />
          </mxGeometry>
        </mxCell>
        <mxCell id="fu6DnhhA0FLCa2TkjUO7-111" value="" style="endArrow=classic;html=1;curved=1;exitX=0.5;exitY=1;exitDx=0;exitDy=0;entryX=0.5;entryY=0;entryDx=0;entryDy=0;fontStyle=1;shadow=0;strokeWidth=1.5;labelBorderColor=none;" parent="1" source="fu6DnhhA0FLCa2TkjUO7-108" target="fu6DnhhA0FLCa2TkjUO7-54" edge="1">
          <mxGeometry width="50" height="50" relative="1" as="geometry">
            <mxPoint x="610" y="730" as="sourcePoint" />
            <mxPoint x="660" y="680" as="targetPoint" />
          </mxGeometry>
        </mxCell>
        <mxCell id="fu6DnhhA0FLCa2TkjUO7-112" value="h" style="ellipse;whiteSpace=wrap;html=1;fontStyle=1;fillColor=#b0e3e6;strokeColor=#0e8088;shadow=0;strokeWidth=1.5;labelBorderColor=none;" parent="1" vertex="1">
          <mxGeometry x="280" y="280" width="80" height="40" as="geometry" />
        </mxCell>
        <mxCell id="fu6DnhhA0FLCa2TkjUO7-113" value="H" style="ellipse;whiteSpace=wrap;html=1;fontStyle=1;fillColor=#b0e3e6;strokeColor=#0e8088;shadow=0;strokeWidth=1.5;labelBorderColor=none;" parent="1" vertex="1">
          <mxGeometry x="160" y="160" width="80" height="40" as="geometry" />
        </mxCell>
        <mxCell id="fu6DnhhA0FLCa2TkjUO7-114" value="" style="endArrow=classic;startArrow=classic;html=1;curved=1;exitX=1;exitY=1;exitDx=0;exitDy=0;entryX=0;entryY=0;entryDx=0;entryDy=0;fontStyle=1;shadow=0;strokeWidth=1.5;labelBorderColor=none;" parent="1" source="fu6DnhhA0FLCa2TkjUO7-113" target="fu6DnhhA0FLCa2TkjUO7-112" edge="1">
          <mxGeometry width="50" height="50" relative="1" as="geometry">
            <mxPoint x="610" y="550" as="sourcePoint" />
            <mxPoint x="660" y="500" as="targetPoint" />
          </mxGeometry>
        </mxCell>
        <mxCell id="fu6DnhhA0FLCa2TkjUO7-115" value="" style="endArrow=classic;startArrow=classic;html=1;curved=1;exitX=1;exitY=1;exitDx=0;exitDy=0;entryX=0;entryY=0;entryDx=0;entryDy=0;fontStyle=1;shadow=0;strokeWidth=1.5;labelBorderColor=none;" parent="1" source="fu6DnhhA0FLCa2TkjUO7-112" target="fu6DnhhA0FLCa2TkjUO7-64" edge="1">
          <mxGeometry width="50" height="50" relative="1" as="geometry">
            <mxPoint x="336.56427124746165" y="374.14213562373084" as="sourcePoint" />
            <mxPoint x="399.9957287525383" y="465.85786437626916" as="targetPoint" />
          </mxGeometry>
        </mxCell>
        <mxCell id="fu6DnhhA0FLCa2TkjUO7-116" value="" style="endArrow=classic;html=1;curved=1;exitX=0;exitY=0.5;exitDx=0;exitDy=0;entryX=1;entryY=0.5;entryDx=0;entryDy=0;fontStyle=1;shadow=0;strokeWidth=1.5;labelBorderColor=none;" parent="1" source="fu6DnhhA0FLCa2TkjUO7-112" target="fu6DnhhA0FLCa2TkjUO7-47" edge="1">
          <mxGeometry width="50" height="50" relative="1" as="geometry">
            <mxPoint x="610" y="550" as="sourcePoint" />
            <mxPoint x="660" y="500" as="targetPoint" />
          </mxGeometry>
        </mxCell>
        <mxCell id="fu6DnhhA0FLCa2TkjUO7-117" value="" style="endArrow=classic;startArrow=classic;html=1;curved=1;exitX=1;exitY=0;exitDx=0;exitDy=0;entryX=0;entryY=1;entryDx=0;entryDy=0;fontStyle=1;shadow=0;strokeWidth=1.5;labelBorderColor=none;" parent="1" source="fu6DnhhA0FLCa2TkjUO7-112" target="fu6DnhhA0FLCa2TkjUO7-36" edge="1">
          <mxGeometry width="50" height="50" relative="1" as="geometry">
            <mxPoint x="610" y="550" as="sourcePoint" />
            <mxPoint x="660" y="500" as="targetPoint" />
          </mxGeometry>
        </mxCell>
        <mxCell id="fu6DnhhA0FLCa2TkjUO7-118" value="" style="endArrow=classic;startArrow=classic;html=1;curved=1;exitX=1;exitY=0.5;exitDx=0;exitDy=0;fontStyle=1;shadow=0;strokeWidth=1.5;labelBorderColor=none;" parent="1" source="fu6DnhhA0FLCa2TkjUO7-113" target="fu6DnhhA0FLCa2TkjUO7-44" edge="1">
          <mxGeometry width="50" height="50" relative="1" as="geometry">
            <mxPoint x="610" y="550" as="sourcePoint" />
            <mxPoint x="660" y="500" as="targetPoint" />
          </mxGeometry>
        </mxCell>
        <mxCell id="fu6DnhhA0FLCa2TkjUO7-119" value="" style="endArrow=classic;html=1;curved=1;exitX=0;exitY=0.5;exitDx=0;exitDy=0;entryX=1;entryY=0;entryDx=0;entryDy=0;fontStyle=1;shadow=0;strokeWidth=1.5;labelBorderColor=none;" parent="1" source="fu6DnhhA0FLCa2TkjUO7-36" target="fu6DnhhA0FLCa2TkjUO7-47" edge="1">
          <mxGeometry width="50" height="50" relative="1" as="geometry">
            <mxPoint x="610" y="550" as="sourcePoint" />
            <mxPoint x="660" y="500" as="targetPoint" />
          </mxGeometry>
        </mxCell>
        <mxCell id="fu6DnhhA0FLCa2TkjUO7-122" value="" style="endArrow=classic;html=1;curved=1;exitX=0;exitY=1;exitDx=0;exitDy=0;fontStyle=1;shadow=0;strokeWidth=1.5;labelBorderColor=none;entryX=1;entryY=1;entryDx=0;entryDy=0;" parent="1" source="1ea317790d2ca983-5" target="1ea317790d2ca983-1" edge="1">
          <mxGeometry width="50" height="50" relative="1" as="geometry">
            <mxPoint x="610" y="485" as="sourcePoint" />
            <mxPoint x="710" y="369" as="targetPoint" />
            <Array as="points">
              <mxPoint x="860" y="465" />
            </Array>
          </mxGeometry>
        </mxCell>
        <mxCell id="fu6DnhhA0FLCa2TkjUO7-123" value="" style="endArrow=classic;html=1;curved=1;exitX=1;exitY=1;exitDx=0;exitDy=0;entryX=0;entryY=0;entryDx=0;entryDy=0;fontStyle=1;shadow=0;strokeWidth=1.5;labelBorderColor=none;" parent="1" source="fu6DnhhA0FLCa2TkjUO7-37" target="1ea317790d2ca983-5" edge="1">
          <mxGeometry width="50" height="50" relative="1" as="geometry">
            <mxPoint x="610" y="550" as="sourcePoint" />
            <mxPoint x="660" y="500" as="targetPoint" />
            <Array as="points" />
          </mxGeometry>
        </mxCell>
        <mxCell id="fu6DnhhA0FLCa2TkjUO7-125" value="&lt;span&gt;gamma&lt;/span&gt;" style="ellipse;whiteSpace=wrap;html=1;rounded=0;shadow=0;comic=0;labelBackgroundColor=none;strokeWidth=1.5;fontFamily=Verdana;fontSize=12;align=center;fontStyle=1;fillColor=#cce5ff;strokeColor=#10739E;labelBorderColor=none;" parent="1" vertex="1">
          <mxGeometry x="40" y="1000" width="80" height="40" as="geometry" />
        </mxCell>
        <mxCell id="fu6DnhhA0FLCa2TkjUO7-126" value="&lt;span&gt;mode&lt;br&gt;&lt;/span&gt;" style="ellipse;whiteSpace=wrap;html=1;rounded=0;shadow=0;comic=0;labelBackgroundColor=none;strokeWidth=1.5;fontFamily=Verdana;fontSize=12;align=center;fontStyle=1;fillColor=#ffcc99;strokeColor=#B46504;labelBorderColor=none;" parent="1" vertex="1">
          <mxGeometry x="880" y="880" width="80" height="40" as="geometry" />
        </mxCell>
        <mxCell id="fu6DnhhA0FLCa2TkjUO7-127" value="&lt;span&gt;umin&lt;/span&gt;" style="ellipse;whiteSpace=wrap;html=1;rounded=0;shadow=0;comic=0;labelBackgroundColor=none;strokeWidth=1.5;fontFamily=Verdana;fontSize=12;align=center;fontStyle=1;fillColor=#ffcc99;strokeColor=#B46504;labelBorderColor=none;" parent="1" vertex="1">
          <mxGeometry x="760" y="880" width="80" height="40" as="geometry" />
        </mxCell>
        <mxCell id="fu6DnhhA0FLCa2TkjUO7-128" value="&lt;span&gt;verbose&lt;/span&gt;" style="ellipse;whiteSpace=wrap;html=1;rounded=0;shadow=0;comic=0;labelBackgroundColor=none;strokeWidth=1.5;fontFamily=Verdana;fontSize=12;align=center;fontStyle=1;fillColor=#ffcc99;strokeColor=#B46504;labelBorderColor=none;" parent="1" vertex="1">
          <mxGeometry x="1000" y="880" width="80" height="40" as="geometry" />
        </mxCell>
        <mxCell id="fu6DnhhA0FLCa2TkjUO7-129" value="" style="endArrow=classic;html=1;curved=1;exitX=0;exitY=0;exitDx=0;exitDy=0;entryX=1;entryY=1;entryDx=0;entryDy=0;fontStyle=1;shadow=0;strokeWidth=1.5;labelBorderColor=none;" parent="1" source="fu6DnhhA0FLCa2TkjUO7-128" target="1ea317790d2ca983-11" edge="1">
          <mxGeometry width="50" height="50" relative="1" as="geometry">
            <mxPoint x="610" y="1010" as="sourcePoint" />
            <mxPoint x="660" y="960" as="targetPoint" />
          </mxGeometry>
        </mxCell>
        <mxCell id="fu6DnhhA0FLCa2TkjUO7-130" value="" style="endArrow=classic;html=1;curved=1;entryX=0.5;entryY=1;entryDx=0;entryDy=0;fontStyle=1;shadow=0;strokeWidth=1.5;labelBorderColor=none;" parent="1" source="fu6DnhhA0FLCa2TkjUO7-126" target="1ea317790d2ca983-11" edge="1">
          <mxGeometry width="50" height="50" relative="1" as="geometry">
            <mxPoint x="810" y="1130" as="sourcePoint" />
            <mxPoint x="901.7157287525383" y="804.1421356237308" as="targetPoint" />
          </mxGeometry>
        </mxCell>
        <mxCell id="fu6DnhhA0FLCa2TkjUO7-131" value="" style="endArrow=classic;html=1;curved=1;exitX=1;exitY=0;exitDx=0;exitDy=0;entryX=0;entryY=1;entryDx=0;entryDy=0;fontStyle=1;shadow=0;strokeWidth=1.5;labelBorderColor=none;" parent="1" source="fu6DnhhA0FLCa2TkjUO7-127" target="1ea317790d2ca983-11" edge="1">
          <mxGeometry width="50" height="50" relative="1" as="geometry">
            <mxPoint x="820" y="1140" as="sourcePoint" />
            <mxPoint x="911.7157287525383" y="814.1421356237308" as="targetPoint" />
          </mxGeometry>
        </mxCell>
        <mxCell id="fu6DnhhA0FLCa2TkjUO7-140" value="" style="endArrow=classic;html=1;strokeColor=#000000;curved=1;exitX=1;exitY=0;exitDx=0;exitDy=0;entryX=0;entryY=1;entryDx=0;entryDy=0;shadow=0;strokeWidth=1.5;labelBorderColor=none;" parent="1" source="fu6DnhhA0FLCa2TkjUO7-108" target="fu6DnhhA0FLCa2TkjUO7-29" edge="1">
          <mxGeometry width="50" height="50" relative="1" as="geometry">
            <mxPoint x="610" y="620" as="sourcePoint" />
            <mxPoint x="660" y="570" as="targetPoint" />
            <Array as="points">
              <mxPoint x="580" y="380" />
            </Array>
          </mxGeometry>
        </mxCell>
        <mxCell id="fu6DnhhA0FLCa2TkjUO7-141" value="&lt;span&gt;reverse&lt;/span&gt;" style="ellipse;whiteSpace=wrap;html=1;rounded=0;shadow=0;comic=0;labelBackgroundColor=none;strokeWidth=1.5;fontFamily=Verdana;fontSize=12;align=center;fontStyle=1;fillColor=#ffcccc;strokeColor=#B85450;labelBorderColor=none;fillStyle=auto;" parent="1" vertex="1">
          <mxGeometry x="1000" y="520" width="80" height="40" as="geometry" />
        </mxCell>
        <mxCell id="-U4c4mzikrt07b-9Fx1a-13" value="TDM" style="ellipse;whiteSpace=wrap;html=1;fontStyle=1;shadow=0;strokeWidth=1.5;labelBorderColor=none;fillColor=#ffff88;strokeColor=#B8BD31;" parent="1" vertex="1">
          <mxGeometry x="280" y="160" width="80" height="40" as="geometry" />
        </mxCell>
        <mxCell id="SlHEQyRQC1eyp0k5k00A-1" value="&lt;b&gt;alpha&lt;/b&gt;" style="ellipse;whiteSpace=wrap;html=1;fillColor=#cdeb8b;strokeColor=#6D9656;strokeWidth=1.5;" parent="1" vertex="1">
          <mxGeometry x="161" y="640" width="79" height="40" as="geometry" />
        </mxCell>
        <mxCell id="00o0YvFrhDCqoFfOaT8_-13" value="" style="endArrow=classic;html=1;rounded=0;exitX=1;exitY=0.5;exitDx=0;exitDy=0;entryX=0;entryY=0.5;entryDx=0;entryDy=0;strokeWidth=1.5;" parent="1" source="SlHEQyRQC1eyp0k5k00A-1" target="fu6DnhhA0FLCa2TkjUO7-54" edge="1">
          <mxGeometry width="50" height="50" relative="1" as="geometry">
            <mxPoint x="840" y="900" as="sourcePoint" />
            <mxPoint x="890" y="850" as="targetPoint" />
          </mxGeometry>
        </mxCell>
        <mxCell id="fu6DnhhA0FLCa2TkjUO7-79" value="dtype" style="ellipse;whiteSpace=wrap;html=1;fontStyle=1;fillColor=#cce5ff;strokeColor=#10739E;shadow=0;strokeWidth=1.5;labelBorderColor=none;" parent="1" vertex="1">
          <mxGeometry x="161" y="760" width="80" height="40" as="geometry" />
        </mxCell>
        <mxCell id="SLUJQ0bN8KMdrqHrg2C1-2" value="" style="endArrow=classic;html=1;rounded=0;entryX=0.5;entryY=0;entryDx=0;entryDy=0;exitX=0.5;exitY=1;exitDx=0;exitDy=0;strokeWidth=1.5;" parent="1" source="fu6DnhhA0FLCa2TkjUO7-82" target="fu6DnhhA0FLCa2TkjUO7-89" edge="1">
          <mxGeometry width="50" height="50" relative="1" as="geometry">
            <mxPoint x="1020" y="910" as="sourcePoint" />
            <mxPoint x="1070" y="860" as="targetPoint" />
          </mxGeometry>
        </mxCell>
        <mxCell id="Fuf8ZG8SZwSjGpJqajnA-7" value="" style="endArrow=classic;startArrow=classic;html=1;rounded=0;exitX=1;exitY=0.5;exitDx=0;exitDy=0;strokeWidth=1.5;entryX=0;entryY=0.5;entryDx=0;entryDy=0;" parent="1" source="1ea317790d2ca983-7" target="Fuf8ZG8SZwSjGpJqajnA-6" edge="1">
          <mxGeometry width="50" height="50" relative="1" as="geometry">
            <mxPoint x="1050" y="585" as="sourcePoint" />
            <mxPoint x="800" y="375" as="targetPoint" />
          </mxGeometry>
        </mxCell>
        <mxCell id="Fuf8ZG8SZwSjGpJqajnA-8" value="" style="endArrow=classic;startArrow=classic;html=1;rounded=0;exitX=0;exitY=0.5;exitDx=0;exitDy=0;entryX=1;entryY=0.5;entryDx=0;entryDy=0;strokeWidth=1.5;" parent="1" source="1ea317790d2ca983-2" target="Fuf8ZG8SZwSjGpJqajnA-6" edge="1">
          <mxGeometry width="50" height="50" relative="1" as="geometry">
            <mxPoint x="1050" y="585" as="sourcePoint" />
            <mxPoint x="1100" y="535" as="targetPoint" />
          </mxGeometry>
        </mxCell>
        <mxCell id="tPIR__va5fNmIt9-wu56-1" value="beta" style="ellipse;whiteSpace=wrap;html=1;fontStyle=1;fillColor=#cce5ff;strokeColor=#10739E;shadow=0;strokeWidth=1.5;labelBorderColor=none;" parent="1" vertex="1">
          <mxGeometry x="161" y="1120" width="80" height="40" as="geometry" />
        </mxCell>
        <mxCell id="tPIR__va5fNmIt9-wu56-2" value="" style="endArrow=classic;startArrow=classic;html=1;curved=1;fontStyle=1;shadow=0;strokeWidth=1.5;labelBorderColor=none;fillColor=#cce5ff;strokeColor=#000000;entryX=0;entryY=1;entryDx=0;entryDy=0;exitX=1;exitY=0;exitDx=0;exitDy=0;" parent="1" source="tPIR__va5fNmIt9-wu56-1" target="fu6DnhhA0FLCa2TkjUO7-90" edge="1">
          <mxGeometry width="50" height="50" relative="1" as="geometry">
            <mxPoint x="210" y="1131" as="sourcePoint" />
            <mxPoint x="210" y="1050" as="targetPoint" />
          </mxGeometry>
        </mxCell>
        <mxCell id="tPIR__va5fNmIt9-wu56-3" value="" style="endArrow=classic;startArrow=classic;html=1;curved=1;fontStyle=1;shadow=0;strokeWidth=1.5;labelBorderColor=none;fillColor=#cce5ff;strokeColor=#000000;entryX=0.5;entryY=1;entryDx=0;entryDy=0;exitX=0.5;exitY=0;exitDx=0;exitDy=0;" parent="1" source="tPIR__va5fNmIt9-wu56-1" target="fu6DnhhA0FLCa2TkjUO7-89" edge="1">
          <mxGeometry width="50" height="50" relative="1" as="geometry">
            <mxPoint x="330" y="1130" as="sourcePoint" />
            <mxPoint x="330" y="1050" as="targetPoint" />
          </mxGeometry>
        </mxCell>
        <mxCell id="uFnxd-bIAwLx0AYXXmVs-8" value="" style="endArrow=classic;html=1;curved=1;exitX=1;exitY=0.5;exitDx=0;exitDy=0;entryX=0;entryY=0.5;entryDx=0;entryDy=0;fontStyle=1;shadow=0;strokeWidth=1.5;labelBorderColor=none;" parent="1" source="tPIR__va5fNmIt9-wu56-1" target="fu6DnhhA0FLCa2TkjUO7-91" edge="1">
          <mxGeometry width="50" height="50" relative="1" as="geometry">
            <mxPoint x="330" y="890" as="sourcePoint" />
            <mxPoint x="330" y="810" as="targetPoint" />
          </mxGeometry>
        </mxCell>
        <mxCell id="uFnxd-bIAwLx0AYXXmVs-10" value="" style="endArrow=classic;html=1;curved=1;exitX=1;exitY=0;exitDx=0;exitDy=0;entryX=0;entryY=0;entryDx=0;entryDy=0;fontStyle=1;shadow=0;strokeWidth=1.5;labelBorderColor=none;" parent="1" source="fu6DnhhA0FLCa2TkjUO7-44" target="1ea317790d2ca983-4" edge="1">
          <mxGeometry width="50" height="50" relative="1" as="geometry">
            <mxPoint x="248.28427124746213" y="334.14213562373106" as="sourcePoint" />
            <mxPoint x="311.71572875253787" y="425.85786437626894" as="targetPoint" />
            <Array as="points" />
          </mxGeometry>
        </mxCell>
        <mxCell id="N4EoWKrooW1R-q_GFbtd-12" value="SNR" style="ellipse;whiteSpace=wrap;html=1;fontStyle=1;fillColor=#e1d5e7;strokeColor=#9673a6;shadow=0;strokeWidth=1.5;labelBorderColor=none;" parent="1" vertex="1">
          <mxGeometry x="400" y="640" width="80" height="40" as="geometry" />
        </mxCell>
        <mxCell id="N4EoWKrooW1R-q_GFbtd-13" value="magnification" style="ellipse;whiteSpace=wrap;html=1;fontStyle=1;fillColor=#0050ef;strokeColor=#001DBC;shadow=0;strokeWidth=1.5;labelBorderColor=none;fontColor=#ffffff;" parent="1" vertex="1">
          <mxGeometry x="880" y="1120" width="80" height="40" as="geometry" />
        </mxCell>
        <mxCell id="N4EoWKrooW1R-q_GFbtd-14" value="PSF" style="ellipse;whiteSpace=wrap;html=1;fontStyle=1;fillColor=#0050ef;strokeColor=#001DBC;shadow=0;strokeWidth=1.5;labelBorderColor=none;fontColor=#ffffff;" parent="1" vertex="1">
          <mxGeometry x="640" y="1120" width="80" height="40" as="geometry" />
        </mxCell>
        <mxCell id="N4EoWKrooW1R-q_GFbtd-15" value="MTF" style="ellipse;whiteSpace=wrap;html=1;fontStyle=1;fillColor=#0050ef;strokeColor=#001DBC;shadow=0;strokeWidth=1.5;labelBorderColor=none;fontColor=#ffffff;" parent="1" vertex="1">
          <mxGeometry x="760" y="1120" width="80" height="40" as="geometry" />
        </mxCell>
        <mxCell id="N4EoWKrooW1R-q_GFbtd-19" value="" style="endArrow=classic;html=1;curved=1;entryX=1;entryY=0.5;entryDx=0;entryDy=0;fontStyle=1;shadow=0;strokeWidth=1.5;labelBorderColor=none;exitX=0;exitY=0.5;exitDx=0;exitDy=0;" parent="1" source="fu6DnhhA0FLCa2TkjUO7-58" target="N4EoWKrooW1R-q_GFbtd-12" edge="1">
          <mxGeometry width="50" height="50" relative="1" as="geometry">
            <mxPoint x="520" y="600" as="sourcePoint" />
            <mxPoint x="541.7157287525379" y="575.8578643762689" as="targetPoint" />
          </mxGeometry>
        </mxCell>
        <mxCell id="N4EoWKrooW1R-q_GFbtd-20" value="" style="endArrow=classic;html=1;curved=1;entryX=0;entryY=0.5;entryDx=0;entryDy=0;fontStyle=1;shadow=0;strokeWidth=1.5;labelBorderColor=none;" parent="1" target="N4EoWKrooW1R-q_GFbtd-12" edge="1">
          <mxGeometry width="50" height="50" relative="1" as="geometry">
            <mxPoint x="360" y="660" as="sourcePoint" />
            <mxPoint x="551.7157287525379" y="585.8578643762689" as="targetPoint" />
          </mxGeometry>
        </mxCell>
        <mxCell id="N4EoWKrooW1R-q_GFbtd-23" value="" style="endArrow=classic;html=1;curved=1;fontStyle=1;shadow=0;strokeWidth=1.5;labelBorderColor=none;exitX=1;exitY=0.5;exitDx=0;exitDy=0;entryX=0;entryY=0.5;entryDx=0;entryDy=0;" parent="1" source="N4EoWKrooW1R-q_GFbtd-14" target="N4EoWKrooW1R-q_GFbtd-15" edge="1">
          <mxGeometry width="50" height="50" relative="1" as="geometry">
            <mxPoint x="1022.7157287525379" y="1275.857864376269" as="sourcePoint" />
            <mxPoint x="991" y="1240" as="targetPoint" />
          </mxGeometry>
        </mxCell>
        <mxCell id="N4EoWKrooW1R-q_GFbtd-24" value="" style="endArrow=classic;html=1;curved=1;entryX=1;entryY=0.5;entryDx=0;entryDy=0;fontStyle=1;shadow=0;strokeWidth=1.5;labelBorderColor=none;exitX=0;exitY=0.5;exitDx=0;exitDy=0;" parent="1" source="N4EoWKrooW1R-q_GFbtd-13" target="N4EoWKrooW1R-q_GFbtd-15" edge="1">
          <mxGeometry width="50" height="50" relative="1" as="geometry">
            <mxPoint x="1032.7157287525379" y="1285.857864376269" as="sourcePoint" />
            <mxPoint x="861" y="980" as="targetPoint" />
          </mxGeometry>
        </mxCell>
        <mxCell id="N4EoWKrooW1R-q_GFbtd-25" value="" style="endArrow=classic;html=1;curved=1;entryX=0;entryY=1;entryDx=0;entryDy=0;fontStyle=1;shadow=0;strokeWidth=1.5;labelBorderColor=none;exitX=1;exitY=0;exitDx=0;exitDy=0;" parent="1" source="fu6DnhhA0FLCa2TkjUO7-54" target="1ea317790d2ca983-3" edge="1">
          <mxGeometry width="50" height="50" relative="1" as="geometry">
            <mxPoint x="801.7157287525379" y="915.8578643762689" as="sourcePoint" />
            <mxPoint x="630" y="610" as="targetPoint" />
          </mxGeometry>
        </mxCell>
        <mxCell id="N4EoWKrooW1R-q_GFbtd-28" value="" style="endArrow=classic;html=1;curved=1;entryX=1;entryY=0;entryDx=0;entryDy=0;fontStyle=1;shadow=0;strokeWidth=1.5;labelBorderColor=none;exitX=0;exitY=1;exitDx=0;exitDy=0;" parent="1" source="1ea317790d2ca983-3" target="fu6DnhhA0FLCa2TkjUO7-58" edge="1">
          <mxGeometry width="50" height="50" relative="1" as="geometry">
            <mxPoint x="831.7157287525379" y="945.8578643762689" as="sourcePoint" />
            <mxPoint x="660" y="640" as="targetPoint" />
          </mxGeometry>
        </mxCell>
        <mxCell id="1ea317790d2ca983-8" value="eta" style="ellipse;whiteSpace=wrap;html=1;rounded=0;shadow=0;comic=0;labelBackgroundColor=none;strokeWidth=1.5;fontFamily=Verdana;fontSize=12;align=center;fontStyle=1;fillColor=#e1d5e7;strokeColor=#9673a6;labelBorderColor=none;" parent="1" vertex="1">
          <mxGeometry x="760" y="760" width="80" height="40" as="geometry" />
        </mxCell>
        <mxCell id="4AQj4vTzhV2-fQuNa3T3-2" value="" style="endArrow=classic;html=1;rounded=0;exitX=0.5;exitY=0;exitDx=0;exitDy=0;entryX=0.5;entryY=1;entryDx=0;entryDy=0;strokeWidth=1.5;" parent="1" source="fu6DnhhA0FLCa2TkjUO7-74" target="fu6DnhhA0FLCa2TkjUO7-58" edge="1">
          <mxGeometry width="50" height="50" relative="1" as="geometry">
            <mxPoint x="370" y="919" as="sourcePoint" />
            <mxPoint x="530" y="919" as="targetPoint" />
          </mxGeometry>
        </mxCell>
        <mxCell id="4AQj4vTzhV2-fQuNa3T3-3" value="" style="endArrow=classic;html=1;curved=1;exitX=1;exitY=0.5;exitDx=0;exitDy=0;entryX=0;entryY=0.5;entryDx=0;entryDy=0;fontStyle=1;shadow=0;strokeWidth=1.5;labelBorderColor=none;dashed=1;" parent="1" source="fu6DnhhA0FLCa2TkjUO7-73" target="fu6DnhhA0FLCa2TkjUO7-74" edge="1">
          <mxGeometry width="50" height="50" relative="1" as="geometry">
            <mxPoint x="330" y="890" as="sourcePoint" />
            <mxPoint x="330" y="810" as="targetPoint" />
          </mxGeometry>
        </mxCell>
        <mxCell id="4AQj4vTzhV2-fQuNa3T3-6" value="" style="endArrow=classic;html=1;curved=1;entryX=1;entryY=1;entryDx=0;entryDy=0;fontStyle=1;shadow=0;strokeWidth=1.5;labelBorderColor=none;exitX=0;exitY=0;exitDx=0;exitDy=0;" parent="1" source="N4EoWKrooW1R-q_GFbtd-15" target="4AQj4vTzhV2-fQuNa3T3-9" edge="1">
          <mxGeometry width="50" height="50" relative="1" as="geometry">
            <mxPoint x="680" y="1000" as="sourcePoint" />
            <mxPoint x="680" y="680" as="targetPoint" />
            <Array as="points" />
          </mxGeometry>
        </mxCell>
        <mxCell id="4AQj4vTzhV2-fQuNa3T3-7" value="dark" style="ellipse;whiteSpace=wrap;html=1;fontStyle=1;fillColor=#e51400;strokeColor=#B20000;shadow=0;strokeWidth=1.5;labelBorderColor=none;fontColor=#ffffff;" parent="1" vertex="1">
          <mxGeometry x="399" y="1000" width="80" height="40" as="geometry" />
        </mxCell>
        <mxCell id="4AQj4vTzhV2-fQuNa3T3-8" value="quant" style="ellipse;whiteSpace=wrap;html=1;fontStyle=1;fillColor=#e51400;strokeColor=#B20000;shadow=0;strokeWidth=1.5;labelBorderColor=none;fontColor=#ffffff;" parent="1" vertex="1">
          <mxGeometry x="520" y="1000" width="80" height="40" as="geometry" />
        </mxCell>
        <mxCell id="4AQj4vTzhV2-fQuNa3T3-9" value="B" style="ellipse;whiteSpace=wrap;html=1;fontStyle=1;fillColor=#e51400;strokeColor=#B20000;shadow=0;strokeWidth=1.5;labelBorderColor=none;fontColor=#ffffff;" parent="1" vertex="1">
          <mxGeometry x="640" y="880" width="80" height="40" as="geometry" />
        </mxCell>
        <mxCell id="4AQj4vTzhV2-fQuNa3T3-11" value="" style="endArrow=classic;html=1;curved=1;fontStyle=1;shadow=0;strokeWidth=1.5;labelBorderColor=none;exitX=0.5;exitY=0;exitDx=0;exitDy=0;entryX=0.5;entryY=1;entryDx=0;entryDy=0;" parent="1" source="4AQj4vTzhV2-fQuNa3T3-8" target="fu6DnhhA0FLCa2TkjUO7-74" edge="1">
          <mxGeometry width="50" height="50" relative="1" as="geometry">
            <mxPoint x="580" y="1260" as="sourcePoint" />
            <mxPoint x="580" y="1180" as="targetPoint" />
          </mxGeometry>
        </mxCell>
        <mxCell id="4AQj4vTzhV2-fQuNa3T3-12" value="" style="endArrow=classic;html=1;curved=1;fontStyle=1;shadow=0;strokeWidth=1.5;labelBorderColor=none;exitX=1;exitY=0;exitDx=0;exitDy=0;entryX=0;entryY=1;entryDx=0;entryDy=0;" parent="1" source="4AQj4vTzhV2-fQuNa3T3-7" target="fu6DnhhA0FLCa2TkjUO7-74" edge="1">
          <mxGeometry width="50" height="50" relative="1" as="geometry">
            <mxPoint x="590" y="1270" as="sourcePoint" />
            <mxPoint x="590" y="1190" as="targetPoint" />
          </mxGeometry>
        </mxCell>
        <mxCell id="4AQj4vTzhV2-fQuNa3T3-13" value="" style="endArrow=classic;html=1;curved=1;fontStyle=1;shadow=0;strokeWidth=1.5;labelBorderColor=none;exitX=0;exitY=0;exitDx=0;exitDy=0;entryX=1;entryY=1;entryDx=0;entryDy=0;" parent="1" source="4AQj4vTzhV2-fQuNa3T3-14" target="fu6DnhhA0FLCa2TkjUO7-74" edge="1">
          <mxGeometry width="50" height="50" relative="1" as="geometry">
            <mxPoint x="850" y="1162" as="sourcePoint" />
            <mxPoint x="914" y="1070" as="targetPoint" />
          </mxGeometry>
        </mxCell>
        <mxCell id="4AQj4vTzhV2-fQuNa3T3-14" value="A" style="ellipse;whiteSpace=wrap;html=1;fontStyle=1;fillColor=#e51400;strokeColor=#B20000;shadow=0;strokeWidth=1.5;labelBorderColor=none;fontColor=#ffffff;" parent="1" vertex="1">
          <mxGeometry x="640" y="1000" width="80" height="40" as="geometry" />
        </mxCell>
        <mxCell id="4AQj4vTzhV2-fQuNa3T3-16" value="" style="endArrow=classic;html=1;rounded=0;exitX=0;exitY=0;exitDx=0;exitDy=0;entryX=1;entryY=1;entryDx=0;entryDy=0;strokeWidth=1.5;" parent="1" source="4AQj4vTzhV2-fQuNa3T3-9" target="fu6DnhhA0FLCa2TkjUO7-58" edge="1">
          <mxGeometry width="50" height="50" relative="1" as="geometry">
            <mxPoint x="570" y="770" as="sourcePoint" />
            <mxPoint x="570" y="690" as="targetPoint" />
          </mxGeometry>
        </mxCell>
        <mxCell id="4AQj4vTzhV2-fQuNa3T3-17" value="" style="endArrow=classic;html=1;curved=1;exitX=1;exitY=1;exitDx=0;exitDy=0;entryX=0;entryY=0;entryDx=0;entryDy=0;fontStyle=1;shadow=0;strokeWidth=1.5;labelBorderColor=none;" parent="1" source="fu6DnhhA0FLCa2TkjUO7-54" target="1ea317790d2ca983-8" edge="1">
          <mxGeometry width="50" height="50" relative="1" as="geometry">
            <mxPoint x="239" y="776" as="sourcePoint" />
            <mxPoint x="302" y="896" as="targetPoint" />
          </mxGeometry>
        </mxCell>
        <mxCell id="4AQj4vTzhV2-fQuNa3T3-19" value="" style="endArrow=classic;html=1;rounded=1;exitX=0;exitY=1;exitDx=0;exitDy=0;entryX=1;entryY=0.5;entryDx=0;entryDy=0;fontStyle=1;shadow=0;strokeWidth=1.5;labelBorderColor=none;" parent="1" source="1ea317790d2ca983-6" target="1ea317790d2ca983-11" edge="1">
          <mxGeometry width="50" height="50" relative="1" as="geometry">
            <mxPoint x="1430" y="600" as="sourcePoint" />
            <mxPoint x="1430" y="860" as="targetPoint" />
          </mxGeometry>
        </mxCell>
        <mxCell id="4AQj4vTzhV2-fQuNa3T3-20" value="" style="endArrow=classic;html=1;rounded=1;exitX=0;exitY=1;exitDx=0;exitDy=0;entryX=1;entryY=0;entryDx=0;entryDy=0;fontStyle=1;shadow=0;strokeWidth=1.5;labelBorderColor=none;" parent="1" source="1ea317790d2ca983-2" target="1ea317790d2ca983-11" edge="1">
          <mxGeometry width="50" height="50" relative="1" as="geometry">
            <mxPoint x="1550" y="560" as="sourcePoint" />
            <mxPoint x="1550" y="820" as="targetPoint" />
          </mxGeometry>
        </mxCell>
        <mxCell id="4AQj4vTzhV2-fQuNa3T3-25" value="" style="endArrow=classic;startArrow=classic;html=1;curved=1;exitX=1;exitY=1;exitDx=0;exitDy=0;entryX=0;entryY=0;entryDx=0;entryDy=0;fontStyle=1;fillColor=#60a917;strokeColor=#000000;shadow=0;strokeWidth=1.5;labelBorderColor=none;" parent="1" source="fu6DnhhA0FLCa2TkjUO7-44" target="1ea317790d2ca983-7" edge="1">
          <mxGeometry width="50" height="50" relative="1" as="geometry">
            <mxPoint x="478" y="324" as="sourcePoint" />
            <mxPoint x="650" y="425" as="targetPoint" />
          </mxGeometry>
        </mxCell>
        <mxCell id="4AQj4vTzhV2-fQuNa3T3-26" value="" style="endArrow=classic;startArrow=classic;html=1;curved=1;exitX=0.5;exitY=1;exitDx=0;exitDy=0;entryX=0.5;entryY=0;entryDx=0;entryDy=0;fontStyle=1;fillColor=#60a917;strokeColor=#000000;shadow=0;strokeWidth=1.5;labelBorderColor=none;" parent="1" source="fu6DnhhA0FLCa2TkjUO7-44" target="fu6DnhhA0FLCa2TkjUO7-64" edge="1">
          <mxGeometry width="50" height="50" relative="1" as="geometry">
            <mxPoint x="478" y="324" as="sourcePoint" />
            <mxPoint x="542" y="411" as="targetPoint" />
          </mxGeometry>
        </mxCell>
        <mxCell id="_qSNo0_2GFUmujSB_o6n-1" value="indexing" style="ellipse;whiteSpace=wrap;html=1;fontStyle=1;fillColor=#bac8d3;strokeColor=#23445D;shadow=0;strokeWidth=1.5;labelBorderColor=none;" vertex="1" parent="1">
          <mxGeometry x="280" y="700" width="80" height="40" as="geometry" />
        </mxCell>
        <mxCell id="_qSNo0_2GFUmujSB_o6n-2" value="" style="endArrow=classic;html=1;curved=1;exitX=0.5;exitY=0;exitDx=0;exitDy=0;entryX=0.5;entryY=1;entryDx=0;entryDy=0;fontStyle=1;shadow=0;strokeWidth=1.5;labelBorderColor=none;" edge="1" parent="1" source="_qSNo0_2GFUmujSB_o6n-1" target="fu6DnhhA0FLCa2TkjUO7-54">
          <mxGeometry width="50" height="50" relative="1" as="geometry">
            <mxPoint x="330" y="570" as="sourcePoint" />
            <mxPoint x="330" y="650" as="targetPoint" />
          </mxGeometry>
        </mxCell>
        <mxCell id="_qSNo0_2GFUmujSB_o6n-3" value="" style="endArrow=classic;html=1;curved=1;exitX=0;exitY=0.5;exitDx=0;exitDy=0;entryX=0.5;entryY=0;entryDx=0;entryDy=0;fontStyle=1;shadow=0;strokeWidth=1.5;labelBorderColor=none;" edge="1" parent="1" source="1ea317790d2ca983-7" target="fu6DnhhA0FLCa2TkjUO7-54">
          <mxGeometry width="50" height="50" relative="1" as="geometry">
            <mxPoint x="358" y="684" as="sourcePoint" />
            <mxPoint x="782" y="776" as="targetPoint" />
            <Array as="points">
              <mxPoint x="390" y="510" />
            </Array>
          </mxGeometry>
        </mxCell>
      </root>
    </mxGraphModel>
  </diagram>
</mxfile>
